<?xml version="1.0" standalone="no"?>
<!DOCTYPE svg PUBLIC "-//W3C//DTD SVG 20010904//EN"
 "http://www.w3.org/TR/2001/REC-SVG-20010904/DTD/svg10.dtd">
<svg version="1.0" xmlns="http://www.w3.org/2000/svg"
 width="260.000000pt" height="260.000000pt" viewBox="0 0 260.000000 260.000000"
 preserveAspectRatio="xMidYMid meet">
<metadata>
Created by potrace 1.11, written by Peter Selinger 2001-2013
</metadata>
<g transform="translate(0.000000,260.000000) scale(0.100000,-0.100000)"
fill="#000000" stroke="none">
<path d="M0 1300 l0 -1300 124 0 c103 0 125 3 130 16 3 8 10 12 16 9 6 -4 8
-11 5 -16 -4 -5 -1 -9 4 -9 6 0 11 6 11 14 0 9 20 19 52 27 29 6 71 20 94 31
23 10 49 15 57 12 9 -3 26 0 39 7 13 7 34 14 48 15 105 13 124 13 110 4 -13
-8 -12 -10 4 -10 14 0 17 5 13 26 -4 25 -3 26 34 21 23 -3 45 0 56 8 15 11 11
13 -28 10 -25 -2 -51 0 -58 5 -7 4 29 8 80 9 81 2 285 34 298 47 3 2 -1 10 -7
16 -9 9 -12 9 -12 -1 0 -7 -4 -9 -10 -6 -5 3 -10 2 -10 -3 0 -5 -19 -12 -42
-15 -33 -5 -46 -2 -55 10 -9 11 -21 14 -43 10 -35 -7 -41 8 -7 17 18 5 20 8 7
16 -11 7 -6 10 23 10 34 0 37 2 37 30 0 17 5 30 10 30 6 0 10 -9 10 -19 0 -24
29 -35 61 -23 13 5 29 7 36 5 20 -7 26 18 8 37 -19 21 -45 16 -46 -9 0 -9 -5
-4 -11 11 -9 25 -13 27 -54 24 -28 -2 -50 -10 -58 -21 -12 -17 -14 -17 -33 2
-10 10 -26 17 -34 15 -11 -4 -11 -1 2 14 9 10 14 25 12 32 -3 7 -1 12 4 10 4
-1 19 2 32 6 18 6 21 10 10 17 -24 15 -57 10 -62 -9 -4 -14 -5 -14 -6 3 0 11
10 29 24 39 23 17 33 54 19 68 -12 12 -44 -5 -44 -24 0 -10 -5 -39 -11 -64
-10 -38 -14 -44 -32 -38 -15 5 -19 3 -14 -9 4 -11 2 -14 -9 -10 -9 3 -14 13
-11 24 7 26 -10 24 -18 -1 -3 -11 -11 -20 -17 -20 -5 0 -8 7 -4 15 3 8 1 15
-4 15 -6 0 -10 -6 -10 -13 0 -13 -39 -41 -47 -34 -2 3 0 14 6 26 6 11 8 22 3
25 -8 5 -69 1 -130 -9 -22 -3 -32 -1 -30 6 2 6 30 12 63 14 72 3 95 12 95 34
0 9 3 25 6 37 5 19 2 20 -28 16 -18 -2 -38 -9 -45 -14 -7 -5 -12 -5 -15 2 -2
7 -14 7 -35 1 -17 -5 -34 -7 -37 -3 -11 10 -7 73 4 67 6 -4 9 -14 8 -23 -3
-14 6 -17 52 -17 86 -1 90 1 90 51 0 39 3 44 23 44 20 -1 20 -2 5 -11 -12 -6
-18 -22 -18 -45 l0 -35 62 6 c34 4 65 8 69 11 4 2 6 22 5 44 l-3 40 51 1 c117
3 170 9 178 21 6 11 10 10 17 -1 7 -10 19 -12 47 -6 22 5 45 7 52 6 6 -1 12 4
12 11 0 9 3 9 12 0 14 -14 102 -17 93 -3 -3 5 -1 12 5 16 5 3 10 2 10 -4 0 -7
38 -10 102 -9 68 0 103 -3 106 -11 2 -6 8 -11 13 -11 6 0 7 4 4 10 -3 5 4 10
17 11 13 0 36 2 51 3 36 2 44 -10 12 -18 -14 -4 -25 -11 -25 -17 0 -6 5 -7 10
-4 15 9 12 -2 -6 -19 -14 -15 -14 -16 4 -16 11 0 22 -9 25 -19 3 -14 11 -18
26 -14 16 4 21 1 21 -16 0 -11 -4 -21 -10 -21 -5 0 -10 -5 -10 -11 0 -6 6 -9
13 -6 19 7 41 -8 32 -23 -4 -6 -13 -9 -21 -6 -10 4 -14 -3 -14 -24 0 -31 -20
-39 -49 -21 -10 6 -21 1 -37 -18 -12 -14 -26 -22 -30 -18 -8 7 6 21 31 30 6 3
7 8 3 12 -10 10 -48 -4 -45 -18 1 -7 -11 -13 -26 -15 -16 -2 -31 -10 -34 -18
-3 -8 -15 -14 -27 -14 -12 0 -28 -6 -36 -12 -12 -11 -12 -10 -1 5 16 20 6 36
-11 19 -18 -18 -41 -15 -34 4 5 12 2 15 -10 10 -8 -3 -20 -6 -25 -6 -20 0 -7
-20 17 -26 l27 -7 -24 -18 -24 -19 23 0 c12 0 22 4 22 8 0 5 14 6 31 4 22 -3
30 -1 25 7 -5 7 1 10 16 8 13 -2 28 3 34 11 12 16 34 9 34 -12 0 -10 13 -12
48 -10 43 3 45 2 28 -11 -11 -8 -24 -15 -29 -15 -4 0 -5 -4 -2 -10 3 -5 18
-10 32 -10 19 0 24 4 19 16 -5 13 -1 15 20 10 17 -5 23 -3 19 4 -3 6 4 10 17
11 22 0 22 1 3 9 -19 8 -19 9 3 9 13 1 22 -5 22 -14 0 -8 5 -15 10 -15 6 0 10
4 10 9 0 14 41 0 47 -16 7 -19 68 -43 109 -43 37 0 53 14 26 25 -16 6 -16 7 1
20 17 12 17 13 0 20 -14 5 -8 10 27 21 66 20 79 18 73 -8 -3 -13 -15 -30 -26
-39 -31 -25 -12 -39 52 -39 l57 0 10 63 c8 53 12 62 31 65 22 3 22 4 37 -88 4
-24 46 51 46 82 0 25 3 26 63 33 34 3 105 13 157 22 111 18 126 20 163 22 l27
1 0 1055 0 1055 -645 0 -646 0 -9 -23 -9 -22 0 23 c-1 17 -7 22 -27 22 -14 0
-23 -4 -19 -10 3 -5 1 -10 -4 -10 -6 0 -11 5 -11 10 0 7 -212 10 -615 10
l-615 0 0 -1300z m1447 1228 c-3 -7 -5 -2 -5 12 0 14 2 19 5 13 2 -7 2 -19 0
-25z m30 0 c-3 -8 -6 -5 -6 6 -1 11 2 17 5 13 3 -3 4 -12 1 -19z m123 -4 c0
-8 -5 -12 -10 -9 -6 4 -8 11 -5 16 9 14 15 11 15 -7z m61 -24 l33 -29 -37 16
c-20 10 -37 23 -37 30 0 19 5 17 41 -17z m-715 -19 c15 12 18 2 8 -25 -7 -19
-44 -22 -44 -3 0 8 -4 7 -10 -3 -7 -11 -10 -11 -10 -2 0 8 -5 10 -12 6 -8 -5
-9 -2 -5 10 6 14 3 16 -13 11 -15 -5 -18 -3 -14 9 5 13 11 13 46 0 31 -11 44
-11 54 -3z m631 -1 c-1 -11 -5 -20 -9 -20 -10 0 -10 4 -2 24 8 22 13 20 11 -4z
m-590 -45 c0 -8 -6 -15 -14 -15 -7 0 -13 7 -13 15 0 8 6 15 13 15 8 0 14 -7
14 -15z m700 -17 c-3 -8 -6 -5 -6 6 -1 11 2 17 5 13 3 -3 4 -12 1 -19z m-667
2 c0 -5 -2 -10 -4 -10 -3 0 -8 5 -11 10 -3 6 -1 10 4 10 6 0 11 -4 11 -10z
m603 -46 c3 -19 1 -24 -10 -20 -8 3 -22 6 -30 6 -12 0 -13 3 -4 13 6 8 8 17 4
20 -3 4 3 7 14 7 14 0 22 -8 26 -26z m-773 2 c0 -3 -4 -8 -10 -11 -5 -3 -10
-1 -10 4 0 6 5 11 10 11 6 0 10 -2 10 -4z m30 -22 c0 -8 -4 -12 -10 -9 -5 3
-10 10 -10 16 0 5 5 9 10 9 6 0 10 -7 10 -16z m105 6 c-3 -5 -13 -10 -21 -10
-8 0 -12 5 -9 10 3 6 13 10 21 10 8 0 12 -4 9 -10z m185 -10 c0 -5 -2 -10 -4
-10 -3 0 -8 5 -11 10 -3 6 -1 10 4 10 6 0 11 -4 11 -10z m-96 -55 c-4 -8 -12
-15 -19 -15 -8 0 -20 -7 -29 -15 -12 -13 -23 -13 -65 -4 -28 6 -51 15 -51 20
0 12 7 11 30 -1 13 -7 19 -6 24 5 4 10 17 14 44 11 35 -3 39 -1 34 17 -4 17
-2 18 16 8 13 -7 19 -17 16 -26z m100 20 c-4 -8 -8 -15 -10 -15 -2 0 -4 7 -4
15 0 8 4 15 10 15 5 0 7 -7 4 -15z m446 11 c0 -2 -3 -11 -6 -20 -9 -23 -23
-20 -21 4 1 11 7 20 14 20 7 0 13 -2 13 -4z m-730 -27 c0 -5 -4 -9 -10 -9 -5
0 -10 7 -10 16 0 8 5 12 10 9 6 -3 10 -10 10 -16z m74 9 c-3 -4 -9 -8 -15 -8
-5 0 -9 4 -9 8 0 5 7 9 15 9 8 0 12 -4 9 -9z m56 2 c0 -5 -2 -10 -4 -10 -3 0
-8 5 -11 10 -3 6 -1 10 4 10 6 0 11 -4 11 -10z m630 -4 c0 -3 -4 -8 -10 -11
-5 -3 -10 -1 -10 4 0 6 5 11 10 11 6 0 10 -2 10 -4z m-340 -16 c8 -5 10 -10 4
-10 -6 0 -16 -10 -21 -22 -9 -21 -10 -20 -9 9 1 36 3 38 26 23z m370 -10 c0
-5 -2 -10 -4 -10 -3 0 -8 5 -11 10 -3 6 -1 10 4 10 6 0 11 -4 11 -10z m-515
-31 c19 -13 35 -32 35 -41 0 -22 1 -22 -63 -2 -114 35 -129 46 -84 63 33 14
73 6 112 -20z m228 14 c4 -2 7 -18 7 -35 l0 -31 -23 24 c-13 13 -22 26 -20 28
1 2 -5 10 -15 18 -15 12 -14 13 13 7 17 -4 33 -9 38 -11z m-528 -3 c3 -5 1
-10 -5 -10 -6 0 -8 -4 -5 -10 8 -13 45 -13 45 -1 0 5 -3 11 -7 14 -5 2 -1 2 7
0 8 -3 28 -7 43 -10 20 -4 26 -10 22 -21 -4 -12 -3 -13 9 -3 16 13 56 6 56 -9
0 -5 12 -10 27 -12 19 -2 27 -9 28 -26 1 -18 -2 -21 -19 -16 -30 9 -33 14 -16
24 11 7 11 10 2 10 -7 0 -15 -7 -18 -15 -7 -17 -43 -11 -56 9 -5 6 -8 2 -8
-10 0 -13 8 -24 20 -27 11 -3 20 -10 20 -17 0 -6 -4 -8 -10 -5 -6 3 -7 -1 -4
-9 7 -19 -12 -22 -20 -3 -5 9 -7 9 -12 0 -3 -7 -12 -9 -20 -6 -8 3 -20 0 -27
-5 -7 -6 -19 -7 -26 -3 -7 5 -22 6 -32 4 -13 -4 -19 0 -19 11 0 9 -4 16 -10
16 -15 0 -12 58 3 63 21 7 46 -4 41 -18 -3 -7 -1 -16 5 -20 7 -4 8 0 5 10 -5
13 0 15 32 12 22 -3 28 -2 15 0 -13 3 -26 13 -28 24 -6 22 -14 24 -31 7 -15
-15 -28 -3 -37 35 -6 21 -4 27 8 27 9 0 19 -4 22 -10z m345 -11 c0 -6 -4 -7
-10 -4 -5 3 -10 11 -10 16 0 6 5 7 10 4 6 -3 10 -11 10 -16z m124 -5 c9 -24 7
-36 -4 -29 -6 4 -7 11 -4 17 5 7 1 9 -9 5 -11 -4 -14 -2 -10 9 7 19 19 18 27
-2z m-89 -4 c3 -5 2 -10 -4 -10 -5 0 -13 5 -16 10 -3 6 -2 10 4 10 5 0 13 -4
16 -10z m-510 -20 c13 -6 15 -9 5 -9 -8 0 -22 4 -30 9 -18 12 -2 12 25 0z
m779 -28 c4 -33 -10 -45 -16 -14 -4 18 2 55 8 49 2 -2 6 -18 8 -35z m-284 24
c0 -3 -4 -8 -10 -11 -5 -3 -10 -1 -10 4 0 6 5 11 10 11 6 0 10 -2 10 -4z m50
-15 c-7 -14 -6 -21 3 -24 6 -2 9 -8 4 -12 -9 -11 -23 3 -32 33 -5 18 -2 22 15
22 17 0 19 -3 10 -19z m88 -21 c-2 -22 -9 -42 -15 -45 -16 -5 -16 -1 -2 48 13
48 20 47 17 -3z m241 -44 c-5 -6 -9 7 -8 35 l1 44 8 -35 c5 -20 5 -39 -1 -44z
m-204 44 c3 -5 1 -10 -4 -10 -6 0 -11 5 -11 10 0 6 2 10 4 10 3 0 8 -4 11 -10z
m-255 -22 c19 -21 20 -23 3 -29 -27 -9 -43 0 -43 27 0 30 13 31 40 2z m128
-46 c4 -24 -7 -29 -26 -10 -18 18 -15 40 6 36 9 -2 18 -13 20 -26z m249 22
c-3 -3 -12 -4 -19 -1 -8 3 -5 6 6 6 11 1 17 -2 13 -5z m-184 -13 c11 -2 9 -39
-3 -46 -15 -9 -50 14 -50 34 0 17 11 19 53 12z m43 -14 c9 3 14 -1 14 -12 0
-11 -5 -15 -14 -12 -8 3 -17 1 -20 -6 -2 -7 -4 2 -4 18 0 17 2 25 4 18 3 -7
12 -9 20 -6z m139 -7 c3 -6 -1 -7 -9 -4 -18 7 -21 14 -7 14 6 0 13 -4 16 -10z
m116 -17 c13 -15 11 -16 -11 -10 -14 4 -32 7 -40 7 -13 0 -13 1 0 10 22 14 36
12 51 -7z m-172 -14 c1 9 7 11 19 6 9 -4 26 -7 37 -7 10 1 24 -3 30 -7 5 -5
22 -11 38 -15 16 -4 27 -13 27 -24 1 -15 2 -15 15 2 18 24 26 18 18 -13 -3
-13 -11 -20 -19 -17 -8 3 -37 8 -66 10 -49 5 -51 5 -18 -5 19 -6 46 -15 60
-21 14 -5 38 -12 54 -14 15 -2 34 -8 41 -14 10 -8 14 -5 19 14 4 17 12 24 26
23 11 -1 18 -6 16 -12 -2 -5 -8 -9 -14 -8 -5 1 -9 -8 -8 -21 1 -21 4 -22 26
-13 14 6 30 14 36 19 16 11 54 -2 54 -20 0 -8 3 -12 7 -9 16 17 37 -52 37
-124 0 -68 2 -76 18 -71 10 2 25 -1 33 -8 17 -14 21 -35 5 -25 -5 3 -10 -1
-10 -10 0 -11 -5 -15 -16 -11 -12 5 -14 1 -10 -17 3 -12 3 -16 0 -9 -3 7 -15
17 -27 23 -20 12 -20 11 1 -25 26 -44 28 -53 7 -36 -17 14 -21 0 -4 -17 8 -8
6 -19 -6 -39 l-16 -29 4 28 c4 23 2 25 -10 15 -11 -9 -16 -9 -22 1 -5 8 -8 -3
-8 -26 -1 -63 -3 -77 -10 -70 -3 4 -12 2 -18 -3 -24 -20 -42 -1 -39 41 2 22 0
37 -5 35 -5 -3 -8 38 -7 92 1 91 -1 100 -24 128 -24 29 -28 30 -48 16 -18 -12
-32 -13 -72 -5 -28 6 -50 7 -50 4 0 -9 61 -31 86 -31 17 -1 16 -4 -8 -23 -32
-26 -48 -65 -54 -127 -5 -59 -9 -78 -17 -86 -3 -4 -2 -14 3 -24 5 -9 7 -29 4
-44 -2 -14 0 -26 6 -26 15 0 11 -82 -5 -104 -20 -26 -19 -33 4 -39 13 -3 18
-12 16 -23 -2 -11 -4 -23 -4 -28 -1 -4 -8 -6 -16 -2 -8 3 -15 0 -15 -5 0 -6 9
-9 20 -6 11 3 20 0 20 -6 0 -26 20 -40 56 -43 22 -1 43 -3 49 -3 5 -1 -1 -8
-13 -17 -27 -18 -29 -44 -4 -44 26 0 53 -77 31 -91 -8 -5 -19 -13 -24 -17 -6
-4 -18 -23 -27 -42 -13 -28 -17 -31 -17 -13 -1 12 3 23 8 25 10 3 14 28 12 66
-1 19 -4 21 -19 13 -15 -8 -22 -4 -38 22 -17 29 -19 30 -22 10 -2 -14 -8 -20
-18 -16 -8 3 -21 0 -29 -7 -8 -7 -15 -11 -16 -9 0 2 -3 15 -5 29 -3 13 -9 29
-14 34 -7 7 -8 0 -4 -22 4 -17 3 -39 -1 -49 -13 -28 -14 -43 -5 -48 5 -3 11
-1 15 5 3 5 11 10 17 10 6 0 4 -8 -5 -18 -10 -10 -17 -24 -17 -30 0 -20 19
-13 36 13 9 14 20 25 25 25 17 0 9 -18 -23 -50 -18 -17 -28 -31 -23 -30 19 4
50 -2 38 -7 -7 -2 -13 -13 -13 -24 0 -10 -4 -19 -10 -19 -5 0 -10 9 -10 20 0
26 -21 26 -43 0 -13 -15 -14 -26 -7 -46 12 -31 13 -64 1 -64 -5 0 -11 23 -15
50 -4 27 -11 50 -16 50 -6 0 -10 -6 -10 -12 0 -9 -4 -8 -10 2 -5 8 -9 29 -8
45 l1 30 4 -27 c7 -49 20 -30 32 46 7 41 18 77 24 80 7 2 0 5 -15 5 -22 1 -26
-3 -22 -16 5 -16 4 -16 -10 1 -14 17 -29 18 -284 11 -196 -5 -271 -4 -276 4
-4 6 -18 11 -32 11 -14 0 -22 -4 -19 -10 3 -5 4 -10 1 -10 -2 0 -12 -3 -20 -6
-12 -5 -15 -2 -10 10 7 18 -20 23 -31 6 -8 -13 -45 -13 -45 0 0 6 -7 10 -15
10 -8 0 -15 6 -15 13 0 9 -2 9 -8 0 -4 -7 -25 -12 -46 -11 -26 1 -43 -4 -51
-15 -7 -9 -23 -17 -36 -17 -22 0 -22 1 9 31 28 27 37 31 69 26 19 -4 43 -2 53
3 11 6 26 4 43 -5 23 -12 28 -11 48 8 l23 21 -23 6 c-12 3 -23 10 -24 15 -1 9
-59 34 -79 35 -4 0 -14 -7 -22 -16 -14 -13 -16 -13 -16 0 0 21 28 27 89 17 32
-5 68 -5 88 1 33 9 46 28 18 28 -19 0 -20 39 -1 46 8 3 17 12 20 21 4 11 2 13
-9 10 -17 -7 -30 9 -15 18 15 9 12 25 -5 25 -8 0 -24 -5 -34 -12 -14 -9 -23
-8 -42 5 -35 25 -85 22 -92 -5 -9 -33 -18 -16 -11 20 l6 30 71 -4 c39 -3 74
-6 77 -6 18 -3 40 18 40 38 0 22 4 24 50 24 28 0 50 5 50 10 0 6 18 10 40 10
33 0 40 3 40 19 0 24 -39 39 -52 20 -8 -11 -9 -10 -5 3 7 20 -33 33 -45 15 -5
-8 -11 -9 -15 -2 -5 6 -23 11 -40 12 -45 3 -63 6 -63 10 0 12 22 43 31 43 6 0
8 -4 5 -9 -3 -5 13 -12 37 -16 59 -12 77 -13 77 -7 0 12 -34 42 -47 42 -7 0
-13 4 -13 9 0 9 111 13 143 4 10 -3 17 -14 17 -29 0 -19 5 -24 26 -24 23 0 25
3 20 24 -4 15 0 28 9 36 12 10 15 9 15 -4 0 -22 40 -30 108 -20 39 6 49 9 30
12 -16 2 -28 8 -28 13 0 16 -18 10 -23 -8 -3 -11 -5 -7 -6 10 -1 18 4 27 14
27 8 0 15 -4 15 -9 0 -14 32 -23 44 -11 7 7 6 10 -2 10 -9 0 -11 10 -7 34 l7
34 -59 13 c-32 7 -65 16 -73 20 -23 13 26 11 71 -2 20 -7 45 -9 53 -6 21 8 10
34 -17 41 -12 3 -18 8 -15 11 3 3 17 3 30 0 20 -5 25 -12 22 -33 -2 -23 1 -27
21 -28 31 -2 32 9 3 30 -16 12 -18 16 -5 12 9 -3 17 -2 17 3 0 9 -67 31 -94
31 -10 0 -15 4 -12 9 3 5 0 13 -7 18 -19 15 -89 33 -101 26 -8 -4 -8 -3 0 6 8
9 24 8 69 -4 132 -34 187 -30 133 11 l-23 16 22 -5 c16 -3 20 -1 16 10 -4 10
-14 13 -32 8 -61 -15 -79 -16 -85 -6 -5 7 4 11 23 11 16 0 33 5 36 10 4 6 16
10 28 8 14 -2 21 2 19 10 -4 20 75 13 188 -18 19 -5 61 -14 93 -20 45 -9 60
-17 71 -37 8 -17 16 -22 20 -14 4 6 2 11 -3 11 -6 0 -11 4 -11 9 0 5 11 8 25
6 15 -1 25 3 25 11 0 8 -11 13 -27 13 -16 0 -50 5 -78 11 -27 6 -62 12 -77 13
-16 1 -28 5 -28 8 0 4 -39 12 -87 19 -49 7 -98 17 -111 23 -18 9 -25 8 -32 -3
-7 -11 -14 -12 -32 -3 -41 20 -90 33 -124 33 -24 0 -34 5 -34 15 0 13 -39 22
-54 13 -2 -2 -13 5 -24 15 -14 13 -22 15 -27 7 -5 -8 -11 -8 -21 1 -8 6 -14
14 -14 18 0 10 59 4 120 -12 199 -55 235 -59 243 -27 6 23 35 27 43 5 4 -8 16
-15 28 -15 12 0 27 -5 33 -11 8 -8 17 -8 31 0 15 8 22 8 25 -2 2 -6 8 -8 13
-4 5 4 2 12 -6 17 -17 11 -24 60 -8 60 5 0 0 8 -12 18 -15 12 -19 23 -14 36 7
19 8 19 15 0 4 -10 8 -13 8 -5z m221 11 c0 12 2 13 9 1 5 -7 14 -10 20 -7 6 4
11 3 11 -2 0 -5 -10 -12 -22 -15 -21 -6 -38 6 -38 28 0 6 5 3 10 -5 9 -13 10
-13 10 0z m-690 -31 c0 -5 -4 -9 -10 -9 -5 0 -10 7 -10 16 0 8 5 12 10 9 6 -3
10 -10 10 -16z m445 -69 c-3 -5 -10 -10 -16 -10 -5 0 -9 5 -9 10 0 6 7 10 16
10 8 0 12 -4 9 -10z m-365 -30 c0 -5 -2 -10 -4 -10 -3 0 -8 5 -11 10 -3 6 -1
10 4 10 6 0 11 -4 11 -10z m-125 -40 c19 -8 19 -9 -2 -9 -12 -1 -25 4 -28 9
-7 12 2 12 30 0z m75 -20 c0 -5 -4 -10 -10 -10 -5 0 -10 5 -10 10 0 6 5 10 10
10 6 0 10 -4 10 -10z m148 -14 c6 -4 11 -19 11 -34 -1 -15 -3 -20 -6 -11 -4
15 -95 45 -110 36 -4 -3 -13 1 -19 7 -9 10 1 13 50 11 34 0 67 -4 74 -9z
m-341 -26 c1 -11 -4 -19 -10 -17 -27 5 -30 37 -4 37 7 0 13 -9 14 -20z m96
-20 c4 0 7 -5 7 -10 0 -9 -20 -8 -72 7 -35 9 -17 21 20 12 20 -5 40 -9 45 -9z
m1159 -9 c4 -4 -13 -8 -37 -9 -33 -1 -45 2 -45 13 0 10 9 12 38 8 20 -3 40 -9
44 -12z m-1079 -18 c-7 -2 -19 -2 -25 0 -7 3 -2 5 12 5 14 0 19 -2 13 -5z m54
-9 c-3 -3 -12 -4 -19 -1 -8 3 -5 6 6 6 11 1 17 -2 13 -5z m-309 -39 c11 19 11
19 12 -2 0 -12 -9 -27 -19 -33 -28 -14 -31 -13 -31 13 0 31 13 43 21 20 5 -16
7 -16 17 2z m195 -14 c-5 -3 -13 -15 -17 -26 -5 -12 -10 -15 -13 -8 -6 17 16
55 29 47 6 -4 6 -9 1 -13z m153 -26 c19 -14 19 -14 -2 -15 -12 0 -24 7 -28 15
-7 19 5 19 30 0z m109 5 c3 -5 1 -10 -4 -10 -6 0 -11 5 -11 10 0 6 2 10 4 10
3 0 8 -4 11 -10z m465 -4 c0 -2 -9 -23 -21 -47 l-20 -44 6 40 c4 22 9 43 11
47 5 8 24 11 24 4z m-913 -26 c26 -5 65 -12 86 -15 20 -3 37 -10 37 -15 0 -5
-12 -5 -28 0 -16 4 -61 11 -100 15 -40 4 -69 11 -66 16 7 11 11 11 71 -1z
m1350 -9 c95 -11 89 -25 -7 -17 -98 7 -130 14 -130 28 0 6 14 7 38 3 20 -4 65
-11 99 -14z m-1167 -10 c0 -5 -7 -14 -15 -21 -12 -10 -15 -10 -15 2 0 8 3 18
7 21 9 10 23 9 23 -2z m-457 -26 c-6 -17 -28 -18 -58 -4 -15 7 -12 8 13 3 18
-3 32 -2 31 3 -3 17 1 24 11 18 5 -3 7 -12 3 -20z m1475 3 c5 -7 13 -23 17
-36 6 -22 5 -22 -14 -10 -12 7 -19 19 -16 25 2 7 0 13 -5 13 -6 0 -10 5 -10
10 0 14 16 13 28 -2z m317 2 c18 -8 17 -9 -7 -9 -16 -1 -28 4 -28 9 0 12 8 12
35 0z m-1175 -15 c8 -10 17 -12 24 -6 7 6 18 4 30 -5 10 -7 23 -11 27 -8 11 7
11 -7 0 -25 -7 -11 -11 -9 -21 8 -9 19 -14 20 -27 10 -16 -14 -46 -22 -39 -10
3 4 0 13 -5 21 -8 13 -11 13 -22 -1 -6 -8 -20 -18 -30 -22 -14 -5 -18 -3 -15
11 2 9 11 16 20 14 9 -1 18 4 22 13 7 19 20 19 36 0z m-572 -28 c4 -20 -9 -22
-26 -5 -17 17 -15 27 6 24 9 -2 18 -10 20 -19z m137 -7 c11 0 40 -1 65 -1 25
-1 55 2 68 6 18 6 22 4 22 -14 0 -12 5 -19 10 -16 6 3 10 2 10 -4 0 -20 -20
-21 -39 -2 -17 17 -24 18 -57 8 -28 -9 -38 -9 -41 0 -3 7 -10 10 -18 7 -8 -3
-11 -12 -8 -20 7 -18 -5 -18 -23 1 -9 8 -25 15 -38 15 -23 0 -71 29 -49 30 6
0 15 -5 18 -10 4 -7 14 -5 28 5 12 8 23 11 27 5 3 -5 14 -9 25 -10z m1415 0
c16 0 32 -4 35 -10 3 -5 -3 -10 -14 -10 -10 0 -22 -6 -24 -12 -4 -10 -8 -9
-16 2 -6 9 -11 10 -11 3 0 -6 -8 -9 -19 -6 -12 3 -17 11 -14 19 3 9 -1 14 -12
14 -9 0 -14 4 -10 10 4 6 15 6 31 0 14 -6 38 -10 54 -10z m-1828 -22 c-7 -7
-12 -8 -12 -2 0 14 12 26 19 19 2 -3 -1 -11 -7 -17z m605 -20 c-3 -8 -6 -5 -6
6 -1 11 2 17 5 13 3 -3 4 -12 1 -19z m-444 -5 c-7 -2 -21 -2 -30 0 -10 3 -4 5
12 5 17 0 24 -2 18 -5z m1642 -13 c3 -5 -1 -10 -9 -10 -8 0 -18 5 -21 10 -3 6
1 10 9 10 8 0 18 -4 21 -10z m-990 -10 c3 -5 1 -10 -4 -10 -6 0 -11 5 -11 10
0 6 2 10 4 10 3 0 8 -4 11 -10z m858 4 c3 -3 1 -14 -5 -24 -9 -13 -14 -15 -24
-6 -8 8 -9 15 -2 24 11 13 21 15 31 6z m186 -1 c-5 -31 2 -44 21 -38 11 3 20
2 20 -4 0 -5 14 -12 30 -16 17 -4 30 -10 30 -14 0 -10 -94 -3 -132 9 -26 8
-28 7 -28 -21 0 -24 -4 -29 -22 -29 -21 1 -21 2 -6 13 9 8 15 22 14 33 -2 15
-11 19 -40 19 -39 0 -41 2 -26 25 6 10 23 13 54 11 28 -1 46 2 46 8 0 6 9 11
20 11 11 0 19 -3 19 -7z m45 1 c24 -9 19 -24 -9 -24 -18 0 -23 4 -19 15 7 17
7 17 28 9z m-527 -21 c-9 -9 -20 -13 -24 -9 -4 4 -1 11 7 16 25 16 35 11 17
-7z m-847 -14 c0 -12 -67 -12 -75 0 -3 6 12 10 35 9 22 0 40 -4 40 -9z m1457
5 c-3 -3 -12 -4 -19 -1 -8 3 -5 6 6 6 11 1 17 -2 13 -5z m-1467 -34 c0 -5 -4
-10 -10 -10 -5 0 -10 5 -10 10 0 6 5 10 10 10 6 0 10 -4 10 -10z m-200 -21
c149 -16 185 -23 193 -33 5 -8 10 -7 16 3 5 8 11 9 15 3 12 -20 -13 -23 -81
-10 -37 7 -98 13 -136 13 -37 0 -67 3 -67 8 0 4 -5 7 -11 7 -5 0 -7 -4 -4 -10
12 -19 -5 -31 -28 -19 l-21 12 22 18 c12 9 19 19 15 22 -5 2 -1 1 7 -1 8 -3
44 -9 80 -13z m1334 9 c-3 -5 0 -15 6 -23 6 -8 9 -19 5 -25 -3 -5 0 -10 7 -10
9 0 9 -3 -2 -10 -13 -8 -12 -10 3 -10 14 0 17 5 12 23 -6 17 -4 19 5 11 6 -6
14 -29 17 -50 4 -30 0 -44 -16 -61 l-21 -22 21 -12 c14 -7 18 -14 11 -21 -11
-11 -35 -2 -28 11 3 4 -11 7 -30 7 l-35 0 26 -13 c14 -8 25 -18 25 -23 0 -5
15 -13 33 -18 31 -8 32 -10 30 -61 l-2 -52 47 7 c93 14 196 10 225 -9 15 -10
33 -15 40 -11 8 5 9 4 2 -4 -8 -8 -27 -9 -65 -3 -30 5 -80 5 -110 1 -30 -5
-79 -9 -107 -9 -58 -1 -57 1 -54 -81 4 -95 23 -170 55 -212 55 -72 116 -210
116 -262 0 -50 -23 -65 -35 -23 -11 40 -47 118 -52 114 -2 -2 1 -28 7 -57 8
-40 7 -57 -2 -68 -8 -10 -9 -13 -2 -9 7 4 14 0 18 -8 3 -8 0 -15 -7 -16 -9 0
-9 -2 1 -6 6 -2 12 -11 12 -18 0 -19 -21 -24 -47 -12 -15 7 -25 22 -28 46 -18
111 -46 202 -91 297 -13 28 -40 100 -60 160 -34 99 -37 119 -38 224 -1 107 0
115 18 115 34 0 29 25 -8 40 -34 14 -36 18 -36 63 0 49 3 52 73 76 9 3 17 11
17 18 0 7 11 14 25 14 14 1 22 -2 19 -8z m81 1 c11 -16 1 -19 -13 -3 -7 8 -8
14 -3 14 5 0 13 -5 16 -11z m265 1 c0 -5 -4 -10 -10 -10 -5 0 -10 5 -10 10 0
6 5 10 10 10 6 0 10 -4 10 -10z m-1820 -10 c0 -13 -11 -13 -30 0 -12 8 -11 10
8 10 12 0 22 -4 22 -10z m1662 -12 c-6 -6 -16 -7 -22 -3 -9 6 -9 9 1 16 17 10
34 0 21 -13z m-1232 -17 c0 -9 -41 -23 -48 -16 -2 2 -1 8 3 14 8 13 45 15 45
2z m1140 -1 c0 -5 -4 -10 -10 -10 -5 0 -10 5 -10 10 0 6 5 10 10 10 6 0 10 -4
10 -10z m141 -10 c32 0 37 -11 14 -30 -9 -7 -27 -10 -45 -6 -17 3 -30 3 -30
-1 0 -11 35 -32 53 -33 9 0 17 -4 17 -10 0 -5 -8 -6 -17 -3 -12 5 -15 2 -10
-10 4 -10 -3 -23 -19 -36 -20 -16 -28 -17 -49 -8 -14 7 -25 15 -25 20 0 10 24
9 36 -3 7 -7 16 -4 28 9 12 13 14 21 6 26 -7 4 -17 2 -23 -4 -13 -13 -57 -15
-57 -2 0 5 -9 11 -20 14 -36 9 -21 25 23 23 34 -1 42 2 41 17 -1 9 3 17 9 17
7 0 7 4 -1 12 -20 20 -14 28 14 18 14 -6 39 -10 55 -10z m59 -5 c0 -8 -4 -15
-10 -15 -5 0 -7 7 -4 15 4 8 8 15 10 15 2 0 4 -7 4 -15z m27 -27 c-3 -8 -6 -5
-6 6 -1 11 2 17 5 13 3 -3 4 -12 1 -19z m-1767 -3 c10 -13 9 -15 -8 -15 -22 0
-36 13 -25 24 10 10 20 7 33 -9z m-153 -42 c-3 -10 -5 -4 -5 12 0 17 2 24 5
18 2 -7 2 -21 0 -30z m320 22 c3 -10 -38 -12 -97 -5 -17 2 -11 5 20 10 56 9
72 8 77 -5z m87 -53 c2 -4 -7 -8 -20 -8 -13 -1 -24 1 -24 5 0 9 38 12 44 3z
m1524 -6 c34 -1 40 -8 20 -23 -16 -12 -128 -14 -128 -2 0 5 8 9 18 10 10 0 12
3 5 6 -28 11 -12 25 20 18 17 -5 47 -9 65 -9z m-1421 -2 c-3 -3 -12 -4 -19 -1
-8 3 -5 6 6 6 11 1 17 -2 13 -5z m1173 -4 c12 -8 9 -10 -13 -10 -16 0 -26 4
-22 10 8 12 16 12 35 0z m-1510 -15 c0 -8 -4 -15 -10 -15 -5 0 -7 7 -4 15 4 8
8 15 10 15 2 0 4 -7 4 -15z m1890 0 c-15 -18 -26 -19 -33 -2 -3 8 4 14 20 15
22 2 24 0 13 -13z m-1777 -20 c39 -6 45 -10 36 -21 -10 -12 -9 -13 5 -8 9 3
16 1 16 -5 0 -6 -4 -11 -9 -11 -5 0 -17 -3 -26 -6 -12 -5 -16 -2 -13 12 2 13
-3 19 -17 19 -11 0 -26 4 -32 8 -7 5 -16 6 -20 4 -5 -3 -14 2 -22 11 -13 13
-12 14 10 9 13 -3 45 -9 72 -12z m127 -20 c0 -8 -2 -15 -4 -15 -2 0 -6 7 -10
15 -3 8 -1 15 4 15 6 0 10 -7 10 -15z m80 6 c0 -16 -18 -22 -23 -9 -3 7 -6 3
-6 -9 -1 -13 -5 -23 -11 -23 -14 0 -12 37 3 43 20 9 37 8 37 -2z m1340 -1 c0
-5 -4 -10 -10 -10 -5 0 -10 5 -10 10 0 6 5 10 10 10 6 0 10 -4 10 -10z m-1440
-20 c0 -5 -4 -10 -10 -10 -5 0 -10 5 -10 10 0 6 5 10 10 10 6 0 10 -4 10 -10z
m1546 -18 c17 -10 16 -12 -11 -13 -16 -1 -38 0 -49 1 -10 1 -15 -3 -12 -8 3
-6 -13 -12 -40 -14 -30 -2 -48 1 -51 9 -3 7 -17 9 -39 6 -28 -5 -33 -3 -28 10
3 10 -1 17 -13 20 -10 3 36 4 103 3 67 -2 130 -8 140 -14z m-1758 -44 c-5 -15
-23 -11 -26 6 -2 11 2 14 13 10 9 -4 14 -11 13 -16z m80 -5 c-9 -2 -15 -10
-12 -18 3 -7 2 -15 -3 -18 -4 -3 -9 6 -9 19 -2 19 3 24 20 23 16 -1 17 -2 4
-6z m1505 0 c3 -5 -8 -9 -24 -10 -16 -1 -29 2 -29 7 0 12 47 13 53 3z m113
-11 c-10 -2 -22 0 -28 6 -6 6 0 7 19 4 21 -5 23 -7 9 -10z m-1883 -59 c-7 -2
-21 -2 -30 0 -10 3 -4 5 12 5 17 0 24 -2 18 -5z m73 -2 c-3 -5 -15 -7 -26 -4
-28 7 -25 13 6 13 14 0 23 -4 20 -9z m114 -4 c0 -15 -20 -37 -32 -37 -5 0 -4
8 1 19 6 10 7 21 4 25 -3 3 1 6 10 6 10 0 17 -6 17 -13z m26 -54 c-11 -11 -19
6 -11 24 8 17 8 17 12 0 3 -10 2 -21 -1 -24z m1039 -3 c18 -8 17 -9 -7 -9 -16
-1 -28 4 -28 9 0 12 8 12 35 0z m-295 -47 c0 -7 -7 -13 -15 -13 -16 0 -19 9
-9 35 5 13 8 14 15 3 5 -7 9 -19 9 -25z m165 -13 c-3 -5 -12 -10 -18 -10 -7 0
-6 4 3 10 19 12 23 12 15 0z m-106 -28 c10 -19 11 -19 -44 -13 -5 1 -1 8 9 16
25 19 23 19 35 -3z m-61 -25 c5 -24 -15 -21 -21 4 -3 13 -1 19 6 16 7 -2 13
-11 15 -20z m432 -38 c-14 -40 -30 -37 -30 6 0 17 2 17 10 5 8 -12 10 -10 10
11 0 14 3 29 7 33 14 14 15 -16 3 -55z m-370 11 c0 -11 5 -20 10 -20 6 0 10
-8 10 -17 0 -14 -3 -14 -20 5 -21 22 -27 52 -10 52 6 0 10 -9 10 -20z m-100 0
c0 -5 -7 -10 -15 -10 -8 0 -15 5 -15 10 0 6 7 10 15 10 8 0 15 -4 15 -10z
m157 -26 c9 16 11 16 16 2 4 -9 3 -16 -2 -16 -5 0 -12 -10 -16 -22 l-7 -23 -8
25 c-10 32 -11 62 -1 35 7 -18 8 -18 18 -1z m-392 -14 c3 -5 -3 -10 -14 -10
-11 0 -23 5 -26 10 -3 6 3 10 14 10 11 0 23 -4 26 -10z m300 -29 c-3 -6 -11
-11 -17 -11 -6 0 -6 6 2 15 14 17 26 13 15 -4z m400 -31 c-10 -11 -20 -18 -23
-15 -3 3 3 14 13 25 10 11 20 18 23 15 3 -3 -3 -14 -13 -25z m-222 -21 c21 -8
21 -9 -3 -7 -14 1 -30 -1 -36 -5 -7 -4 -14 2 -17 15 -7 27 14 44 26 22 5 -8
18 -19 30 -25z m-103 11 c0 -9 -31 -23 -37 -16 -3 3 1 11 8 19 14 15 29 13 29
-3z m30 -10 c0 -11 -4 -20 -10 -20 -5 0 -10 9 -10 20 0 11 5 20 10 20 6 0 10
-9 10 -20z m312 -23 c-26 -27 -28 -42 -7 -33 20 7 19 4 -4 -23 -16 -19 -20
-19 -25 -5 -3 9 -3 21 0 26 4 6 7 20 8 32 1 13 8 20 19 20 9 -1 17 3 17 9 0 6
3 7 7 4 3 -4 -3 -17 -15 -30z m-395 1 c-3 -8 -6 -5 -6 6 -1 11 2 17 5 13 3 -3
4 -12 1 -19z m-950 -190 c-3 -7 -5 -2 -5 12 0 14 2 19 5 13 2 -7 2 -19 0 -25z
m0 -40 c-3 -8 -6 -5 -6 6 -1 11 2 17 5 13 3 -3 4 -12 1 -19z m90 -20 c-3 -8
-6 -5 -6 6 -1 11 2 17 5 13 3 -3 4 -12 1 -19z m-227 -41 c0 -5 -4 -6 -9 -2 -6
3 -14 -3 -20 -12 -6 -10 -11 -12 -11 -5 0 7 5 21 12 32 9 14 14 16 20 7 4 -7
8 -16 8 -20z m270 -19 c0 -4 -16 -8 -36 -8 -19 0 -33 4 -30 8 3 5 19 9 36 9
16 0 30 -4 30 -9z m1114 3 c4 -5 3 -16 0 -25 -5 -14 -8 -14 -21 -1 -8 8 -11
19 -8 25 8 12 22 13 29 1z m-1224 -11 c12 -8 11 -10 -7 -10 -12 0 -25 5 -28
10 -8 13 15 13 35 0z m1120 -21 c0 -5 4 -7 10 -4 6 3 7 -1 4 -9 -5 -13 -8 -13
-20 -1 -16 16 -18 25 -4 25 6 0 10 -5 10 -11z m-662 -19 c-7 -11 -19 -18 -25
-15 -7 2 -24 -8 -38 -23 -15 -15 -25 -22 -23 -17 3 11 -4 15 -31 15 -15 0 -21
-10 -26 -40 -8 -48 -20 -52 -23 -7 -1 17 -5 40 -8 50 -3 10 0 18 8 18 32 3 56
8 97 17 25 6 49 9 53 6 4 -3 8 0 8 5 0 6 5 11 10 11 6 0 5 -8 -2 -20z m722 10
c0 -5 -5 -10 -11 -10 -5 0 -7 5 -4 10 3 6 8 10 11 10 2 0 4 -4 4 -10z m-1023
-22 c-3 -8 -6 -5 -6 6 -1 11 2 17 5 13 3 -3 4 -12 1 -19z m-160 -10 c-3 -8 -6
-5 -6 6 -1 11 2 17 5 13 3 -3 4 -12 1 -19z m1238 2 c-3 -5 -12 -10 -18 -10 -7
0 -6 4 3 10 19 12 23 12 15 0z m-965 -15 c0 -11 -8 -14 -33 -11 -40 5 -89 -3
-82 -14 3 -4 2 -23 -2 -41 l-7 -34 -6 30 c-12 61 -3 74 54 78 28 2 57 4 64 5
6 1 12 -5 12 -13z m193 -48 c-9 -15 -21 4 -15 25 5 21 6 21 12 2 4 -10 5 -22
3 -27z m1207 28 c0 -8 -7 -15 -15 -15 -9 0 -12 6 -9 15 4 8 10 15 15 15 5 0 9
-7 9 -15z m-1587 -2 c-7 -2 -19 -2 -25 0 -7 3 -2 5 12 5 14 0 19 -2 13 -5z
m-106 -35 c-3 -7 -5 -2 -5 12 0 14 2 19 5 13 2 -7 2 -19 0 -25z m388 -54 l-15
-39 3 35 c1 19 6 38 12 42 16 11 16 3 0 -38z m75 36 c11 -7 6 -10 -20 -10 -26
0 -31 3 -20 10 8 5 17 10 20 10 3 0 12 -5 20 -10z m-317 -27 c-7 -2 -19 -2
-25 0 -7 3 -2 5 12 5 14 0 19 -2 13 -5z m-70 -23 c-3 -11 -7 -20 -9 -20 -2 0
-4 9 -4 20 0 11 4 20 9 20 5 0 7 -9 4 -20z m-36 4 c-3 -3 -12 -4 -19 -1 -8 3
-5 6 6 6 11 1 17 -2 13 -5z m426 -11 c-7 -2 -21 -2 -30 0 -10 3 -4 5 12 5 17
0 24 -2 18 -5z m72 -3 c-3 -5 -10 -10 -16 -10 -5 0 -9 5 -9 10 0 6 7 10 16 10
8 0 12 -4 9 -10z"/>
<path d="M975 2280 c3 -5 10 -10 16 -10 5 0 9 5 9 10 0 6 -7 10 -16 10 -8 0
-12 -4 -9 -10z"/>
<path d="M1117 2243 c-13 -13 -7 -21 13 -16 11 3 20 9 20 14 0 10 -24 12 -33
2z"/>
<path d="M850 2129 c0 -11 21 -11 39 0 9 6 5 9 -13 9 -14 0 -26 -4 -26 -9z"/>
<path d="M1535 2039 c-4 -6 -5 -12 -2 -15 2 -3 7 2 10 11 7 17 1 20 -8 4z"/>
<path d="M1560 2030 c0 -5 5 -10 10 -10 6 0 10 5 10 10 0 6 -4 10 -10 10 -5 0
-10 -4 -10 -10z"/>
<path d="M1510 1948 c0 -12 11 -19 38 -23 20 -4 50 -11 65 -16 21 -6 27 -5 24
4 -2 6 -28 16 -58 21 -30 5 -57 14 -61 20 -5 7 -8 4 -8 -6z"/>
<path d="M1840 1855 c0 -8 2 -15 4 -15 2 0 6 7 10 15 3 8 1 15 -4 15 -6 0 -10
-7 -10 -15z"/>
<path d="M1430 1815 c0 -8 7 -15 16 -15 14 0 14 3 4 15 -7 8 -14 15 -16 15 -2
0 -4 -7 -4 -15z"/>
<path d="M1388 1813 c6 -2 18 -2 25 0 6 3 1 5 -13 5 -14 0 -19 -2 -12 -5z"/>
<path d="M1538 1783 c7 -3 16 -2 19 1 4 3 -2 6 -13 5 -11 0 -14 -3 -6 -6z"/>
<path d="M1827 1735 c-4 -33 -10 -78 -13 -100 -4 -37 -4 -38 9 -20 8 11 17 30
21 43 4 12 15 26 25 31 25 14 17 74 -9 66 -14 -4 -20 0 -22 17 -2 13 -7 -4
-11 -37z m35 -39 c-4 -7 -8 -5 -10 7 -2 9 -8 17 -13 17 -6 0 -7 5 -3 12 5 8
11 6 20 -7 7 -10 10 -23 6 -29z"/>
<path d="M1303 1753 c9 -2 25 -2 35 0 9 3 1 5 -18 5 -19 0 -27 -2 -17 -5z"/>
<path d="M1506 1743 c-4 -4 -23 -6 -44 -6 l-37 2 34 -10 c27 -8 37 -7 50 5 8
9 13 16 10 16 -3 0 -9 -3 -13 -7z"/>
<path d="M1293 1653 c-22 -8 -15 -43 8 -43 11 0 18 4 14 9 -3 5 -1 12 5 16 6
4 8 11 5 16 -7 10 -13 10 -32 2z"/>
<path d="M1538 1643 c6 -2 18 -2 25 0 6 3 1 5 -13 5 -14 0 -19 -2 -12 -5z"/>
<path d="M1111 1518 c-1 -9 5 -19 12 -21 6 -3 2 -6 -10 -6 -27 -1 -31 -16 -5
-18 98 -9 123 -10 127 -3 2 4 -6 12 -20 18 -14 6 -25 7 -27 2 -2 -5 -14 -7
-27 -3 l-23 6 28 13 29 14 -37 -4 c-22 -2 -39 1 -42 8 -2 6 -5 4 -5 -6z"/>
<path d="M1231 1504 c0 -11 3 -14 6 -6 3 7 2 16 -1 19 -3 4 -6 -2 -5 -13z"/>
<path d="M1036 1497 c3 -10 9 -15 12 -12 3 3 0 11 -7 18 -10 9 -11 8 -5 -6z"/>
<path d="M1350 1480 c0 -5 5 -10 11 -10 5 0 7 5 4 10 -3 6 -8 10 -11 10 -2 0
-4 -4 -4 -10z"/>
<path d="M1040 1448 c0 -20 13 -35 37 -42 18 -6 21 -4 17 16 -3 18 -2 17 7 -4
6 -16 17 -28 25 -28 9 0 14 3 12 8 -24 49 -34 62 -50 62 -10 0 -18 -4 -18 -10
0 -5 -5 -10 -11 -10 -5 0 -7 5 -4 10 3 6 1 10 -4 10 -6 0 -11 -6 -11 -12z"/>
<path d="M1276 1424 c-8 -21 1 -34 22 -34 15 0 15 2 2 10 -13 8 -12 10 3 10 9
0 17 -4 17 -10 0 -5 11 -9 25 -8 33 3 31 9 -6 31 -38 21 -55 22 -63 1z"/>
<path d="M1167 1414 c-13 -14 6 -29 36 -28 21 1 33 6 35 17 2 10 -1 17 -7 17
-6 0 -11 -5 -11 -12 0 -9 -3 -9 -12 0 -13 13 -31 16 -41 6z"/>
<path d="M975 1400 c-3 -6 1 -7 9 -4 18 7 21 14 7 14 -6 0 -13 -4 -16 -10z"/>
<path d="M1385 1390 c3 -5 8 -10 11 -10 2 0 4 5 4 10 0 6 -5 10 -11 10 -5 0
-7 -4 -4 -10z"/>
<path d="M1520 1389 c-14 -4 -20 -8 -15 -9 64 -10 75 -9 74 8 0 11 -2 12 -6 4
-3 -8 -9 -9 -16 -4 -7 5 -23 5 -37 1z"/>
<path d="M1077 1351 c3 -12 10 -21 15 -21 13 0 6 32 -9 37 -7 3 -9 -3 -6 -16z"/>
<path d="M1119 1350 c-1 -11 -2 -26 -3 -32 -1 -8 13 -13 35 -13 27 0 38 5 47
23 5 12 6 20 1 16 -5 -3 -9 0 -9 5 0 6 -7 11 -15 11 -8 0 -15 -5 -15 -11 0 -5
5 -7 10 -4 6 3 10 2 10 -3 0 -15 -24 -21 -36 -8 -6 6 -9 17 -6 24 2 6 -1 12
-7 12 -6 0 -12 -9 -12 -20z"/>
<path d="M932 1343 c-8 -15 -9 -24 -1 -28 15 -10 21 0 17 27 l-3 23 -13 -22z"/>
<path d="M1227 1343 c3 -7 9 -13 13 -13 4 0 10 6 13 13 3 7 -3 13 -13 13 -10
0 -16 -6 -13 -13z"/>
<path d="M925 1281 c-3 -6 4 -9 15 -8 11 1 20 5 20 9 0 11 -28 10 -35 -1z"/>
<path d="M976 1265 c4 -8 11 -15 16 -15 6 0 5 6 -2 15 -7 8 -14 15 -16 15 -2
0 -1 -7 2 -15z"/>
<path d="M1180 1268 c0 -4 4 -8 10 -8 5 0 12 -10 15 -23 7 -28 35 -32 35 -5 0
10 -4 18 -10 18 -5 0 -10 6 -10 14 0 9 -9 14 -20 13 -11 -1 -20 -5 -20 -9z"/>
<path d="M1010 1260 c0 -5 5 -10 11 -10 5 0 7 5 4 10 -3 6 -8 10 -11 10 -2 0
-4 -4 -4 -10z"/>
<path d="M1135 1261 c-3 -5 -1 -12 5 -16 5 -3 10 1 10 9 0 18 -6 21 -15 7z"/>
<path d="M1078 1243 c7 -3 16 -2 19 1 4 3 -2 6 -13 5 -11 0 -14 -3 -6 -6z"/>
<path d="M1160 1240 c0 -5 7 -7 15 -4 8 4 15 8 15 10 0 2 -7 4 -15 4 -8 0 -15
-4 -15 -10z"/>
<path d="M1270 1240 l-25 -8 28 -1 c15 -1 27 4 27 9 0 6 -1 10 -2 9 -2 -1 -14
-5 -28 -9z"/>
<path d="M1380 1220 c8 -5 26 -10 39 -10 32 0 24 6 -19 14 -25 4 -31 3 -20 -4z"/>
<path d="M867 1213 c-9 -9 -9 -43 1 -43 21 1 30 16 18 32 -7 10 -16 15 -19 11z"/>
<path d="M1195 1194 c14 -15 14 -17 -2 -30 -17 -12 -16 -13 5 -7 12 3 22 7 22
10 0 12 -22 43 -31 43 -6 0 -3 -7 6 -16z"/>
<path d="M1220 1191 c0 -5 7 -14 15 -21 16 -14 18 -10 9 14 -6 17 -24 22 -24
7z"/>
<path d="M1294 1184 c3 -9 6 -20 6 -25 0 -17 18 -9 23 10 3 12 -1 22 -10 25
-22 9 -26 7 -19 -10z"/>
<path d="M910 1181 c0 -5 9 -11 20 -14 12 -3 20 0 20 7 0 6 -9 12 -20 13 -11
1 -20 -2 -20 -6z"/>
<path d="M1505 1180 c3 -5 16 -10 28 -9 21 0 21 1 2 9 -28 12 -37 12 -30 0z"/>
<path d="M1133 1163 c9 -2 23 -2 30 0 6 3 -1 5 -18 5 -16 0 -22 -2 -12 -5z"/>
<path d="M1404 1159 c-5 -9 -2 -10 9 -6 9 3 18 2 21 -4 2 -5 3 -4 2 3 -3 17
-23 21 -32 7z"/>
<path d="M1518 1143 c7 -3 16 -2 19 1 4 3 -2 6 -13 5 -11 0 -14 -3 -6 -6z"/>
<path d="M1190 1101 c0 -11 -8 -22 -17 -24 -10 -3 -6 -4 10 -4 15 1 27 5 27 8
0 4 3 14 6 23 4 11 1 16 -10 16 -9 0 -16 -8 -16 -19z"/>
<path d="M804 1096 c-8 -22 -2 -27 16 -16 12 7 12 12 3 21 -10 10 -14 9 -19
-5z"/>
<path d="M1305 1100 c3 -5 -7 -13 -22 -17 l-28 -7 30 -7 c47 -10 75 -10 75 1
0 6 -11 8 -25 4 -15 -4 -25 -2 -25 5 0 6 8 11 18 11 14 0 15 2 2 10 -19 13
-33 13 -25 0z"/>
<path d="M1380 1103 c0 -3 8 -12 18 -19 16 -13 16 -14 0 -8 -10 3 -18 1 -18
-5 0 -6 9 -11 20 -11 11 0 20 6 20 13 0 8 4 7 11 -3 8 -12 10 -12 7 4 -3 17
-58 44 -58 29z"/>
<path d="M840 1090 c0 -5 5 -10 11 -10 5 0 7 5 4 10 -3 6 -8 10 -11 10 -2 0
-4 -4 -4 -10z"/>
<path d="M870 1090 c0 -12 26 -19 39 -10 9 5 4 9 -13 12 -14 3 -26 2 -26 -2z"/>
<path d="M940 1081 c0 -4 19 -8 42 -9 23 -1 39 0 37 3 -9 8 -79 14 -79 6z"/>
<path d="M1060 1077 c0 -7 68 -2 77 6 2 3 -14 4 -36 3 -23 0 -41 -4 -41 -9z"/>
<path d="M1651 1071 c-8 -5 -9 -11 -3 -15 5 -3 12 1 16 9 6 17 6 18 -13 6z"/>
<path d="M1825 1400 c-3 -5 -1 -10 4 -10 6 0 11 5 11 10 0 6 -2 10 -4 10 -3 0
-8 -4 -11 -10z"/>
<path d="M1890 1370 c0 -5 5 -10 11 -10 5 0 7 5 4 10 -3 6 -8 10 -11 10 -2 0
-4 -4 -4 -10z"/>
<path d="M1890 1340 c0 -12 8 -12 35 0 18 8 17 9 -7 9 -16 1 -28 -3 -28 -9z"/>
<path d="M1840 1336 c0 -2 9 -6 20 -9 11 -3 18 -1 14 4 -5 9 -34 13 -34 5z"/>
<path d="M1900 1310 c-13 -8 -13 -11 3 -27 16 -16 17 -16 17 4 0 12 6 24 13
26 8 4 7 6 -3 6 -8 0 -22 -4 -30 -9z"/>
<path d="M1376 652 c-8 -13 5 -52 17 -52 5 0 16 8 23 18 13 16 13 16 14 0 0
-30 16 -20 18 12 2 30 -22 44 -31 18 -3 -10 -7 -10 -19 0 -9 7 -19 9 -22 4z"/>
<path d="M1469 658 c0 -2 -3 -14 -5 -28 -4 -24 -2 -26 41 -26 37 -1 45 2 45
17 0 11 -5 16 -14 13 -7 -3 -16 2 -19 10 -5 13 -44 24 -48 14z m41 -28 c0 -5
-4 -10 -10 -10 -5 0 -10 5 -10 10 0 6 5 10 10 10 6 0 10 -4 10 -10z"/>
<path d="M1200 631 c0 -11 -4 -23 -10 -26 -5 -3 -10 3 -10 14 0 25 -6 26 -26
7 -16 -17 -19 -30 -4 -21 5 3 20 -1 33 -10 23 -15 24 -15 25 20 1 19 -1 35 -3
35 -3 0 -5 -9 -5 -19z"/>
<path d="M1255 634 c11 -8 19 -23 17 -32 -2 -14 4 -17 25 -17 22 1 29 7 31 28
3 21 0 26 -12 21 -10 -4 -16 -1 -16 7 0 11 -3 11 -10 -1 -6 -10 -10 -11 -10
-2 0 6 -10 12 -22 12 -23 -1 -23 -1 -3 -16z m55 -24 c0 -5 -4 -10 -10 -10 -5
0 -10 5 -10 10 0 6 5 10 10 10 6 0 10 -4 10 -10z"/>
<path d="M838 597 l-4 -38 56 5 c30 3 58 5 63 5 4 1 7 16 7 34 l0 32 -59 0
-59 1 -4 -39z"/>
<path d="M995 625 c-16 -7 -24 -14 -17 -14 9 -1 11 -8 7 -22 -6 -17 -3 -20 12
-17 10 2 17 9 16 15 -1 6 4 14 12 17 10 3 12 0 9 -12 -5 -15 -4 -15 6 1 6 9 8
22 4 28 -4 7 1 10 12 7 11 -2 21 -15 25 -33 6 -29 7 -29 8 8 1 35 0 37 -31 37
-18 -1 -46 -7 -63 -15z"/>
<path d="M1118 622 c-6 -21 14 -42 39 -41 14 0 13 2 -4 9 -25 10 -31 35 -10
43 7 4 6 6 -4 6 -9 1 -19 -7 -21 -17z"/>
<path d="M1235 610 c-3 -6 1 -7 9 -4 18 7 21 14 7 14 -6 0 -13 -4 -16 -10z"/>
<path d="M1355 600 c-3 -5 -1 -10 4 -10 6 0 11 5 11 10 0 6 -2 10 -4 10 -3 0
-8 -4 -11 -10z"/>
<path d="M1481 576 c-9 -10 -8 -15 4 -20 8 -3 15 -4 15 -2 0 3 3 11 6 20 8 20
-9 21 -25 2z"/>
<path d="M1520 568 c0 -13 6 -18 18 -16 9 2 17 10 17 17 0 8 -8 15 -17 17 -12
1 -18 -4 -18 -18z"/>
<path d="M1372 571 c-10 -6 -10 -10 3 -21 13 -11 15 -9 15 9 0 24 0 24 -18 12z"/>
<path d="M1293 536 c0 -27 11 -34 23 -15 3 6 0 18 -9 26 -13 13 -14 12 -14
-11z"/>
<path d="M807 512 c-5 -42 8 -66 23 -42 13 20 9 68 -6 74 -8 3 -14 -9 -17 -32z"/>
<path d="M957 543 c-2 -5 0 -21 4 -38 7 -29 7 -29 8 8 1 35 -3 46 -12 30z"/>
<path d="M992 515 c1 -21 6 -34 12 -32 6 2 11 9 10 15 -1 7 -2 21 -2 32 -3 35
-21 21 -20 -15z"/>
<path d="M711 527 c-13 -13 -15 -81 -3 -73 5 3 25 6 45 8 25 1 37 8 40 20 6
21 -4 23 -21 6 -9 -9 -12 -8 -13 8 -1 10 -1 22 -1 25 2 12 -36 17 -47 6z"/>
<path d="M780 529 c0 -5 5 -7 10 -4 6 3 10 8 10 11 0 2 -4 4 -10 4 -5 0 -10
-5 -10 -11z"/>
<path d="M1122 515 c0 -16 2 -22 5 -12 2 9 2 23 0 30 -3 6 -5 -1 -5 -18z"/>
<path d="M1616 510 c8 -43 10 -46 16 -22 3 10 -1 27 -9 37 -12 17 -13 16 -7
-15z"/>
<path d="M920 496 c0 -9 5 -16 10 -16 6 0 10 4 10 9 0 6 -4 13 -10 16 -5 3
-10 -1 -10 -9z"/>
<path d="M945 451 c-3 -6 4 -9 15 -8 11 1 20 5 20 9 0 11 -28 10 -35 -1z"/>
<path d="M1124 452 c3 -6 2 -13 -4 -17 -16 -10 -12 -25 5 -19 18 7 20 30 3 40
-6 4 -8 3 -4 -4z"/>
<path d="M1455 440 c-3 -5 -12 -7 -20 -3 -9 3 -15 -1 -15 -11 0 -21 19 -20 50
4 20 15 21 20 8 20 -9 0 -19 -4 -23 -10z"/>
<path d="M2573 425 c-3 -9 -3 -18 0 -21 9 -9 27 6 27 22 0 19 -19 18 -27 -1z"/>
<path d="M947 424 c-3 -3 -3 -12 -1 -19 3 -7 -5 -15 -17 -18 -13 -4 -21 -9
-18 -12 6 -6 69 14 69 22 0 9 -28 32 -33 27z"/>
<path d="M1204 379 c-4 -8 1 -9 16 -4 16 5 20 4 15 -5 -4 -7 -1 -10 10 -8 10
2 20 -3 22 -9 3 -7 0 -13 -7 -13 -6 0 -8 -4 -5 -10 3 -5 10 -10 15 -10 10 0
60 44 60 54 0 13 -28 5 -34 -10 -7 -17 -21 -11 -21 8 0 15 -62 20 -71 7z"/>
<path d="M1110 353 c0 -26 16 -47 29 -38 9 5 7 11 -5 19 -9 7 -14 18 -10 24 4
7 2 12 -3 12 -6 0 -11 -8 -11 -17z"/>
<path d="M1176 351 c-25 -5 -27 -8 -14 -18 12 -11 18 -9 33 7 10 11 16 19 14
19 -2 -1 -17 -4 -33 -8z"/>
<path d="M1205 330 c-8 -13 5 -13 25 0 13 8 13 10 -2 10 -9 0 -20 -4 -23 -10z"/>
<path d="M1352 318 c2 -6 14 -13 27 -15 27 -4 20 12 -9 20 -13 3 -20 1 -18 -5z"/>
<path d="M968 263 c6 -2 18 -2 25 0 6 3 1 5 -13 5 -14 0 -19 -2 -12 -5z"/>
<path d="M1878 263 c7 -3 16 -2 19 1 4 3 -2 6 -13 5 -11 0 -14 -3 -6 -6z"/>
<path d="M1100 245 c0 -8 6 -15 14 -15 8 0 23 -3 33 -7 11 -4 8 2 -9 15 -31
26 -38 27 -38 7z"/>
<path d="M956 235 c5 -11 11 -12 25 -4 26 13 24 19 -6 19 -17 0 -23 -4 -19
-15z"/>
<path d="M2553 169 c-32 -9 -40 -19 -26 -32 3 -4 11 1 18 10 8 11 18 14 31 9
18 -7 18 -8 2 -17 -10 -6 -18 -18 -18 -29 0 -11 -9 -20 -22 -23 -21 -3 -21 -4
-4 -12 11 -5 21 -4 25 4 4 6 15 9 24 5 15 -5 17 1 17 45 0 28 -3 51 -7 50 -5
0 -23 -5 -40 -10z"/>
<path d="M515 60 c3 -5 16 -10 28 -9 21 0 21 1 2 9 -28 12 -37 12 -30 0z"/>
<path d="M426 51 c-14 -5 -16 -10 -8 -15 7 -4 19 0 28 8 17 17 11 19 -20 7z"/>
<path d="M610 49 c0 -5 5 -7 10 -4 6 3 10 8 10 11 0 2 -4 4 -10 4 -5 0 -10 -5
-10 -11z"/>
<path d="M493 32 c15 -9 27 -20 27 -24 0 -5 7 -8 15 -8 8 0 15 5 15 10 0 6 -6
10 -14 10 -8 0 -16 7 -20 15 -3 8 -16 15 -28 15 -22 -1 -22 -1 5 -18z"/>
<path d="M2555 43 c11 -3 26 -12 33 -21 11 -14 12 -13 12 6 0 18 -5 22 -32 21
-21 -1 -26 -3 -13 -6z"/>
<path d="M450 16 c0 -10 9 -16 25 -16 14 0 25 5 25 10 0 6 -4 10 -9 10 -5 0
-16 3 -25 6 -11 4 -16 1 -16 -10z"/>
</g>
</svg>
